# xmcd
#
# Track frame offsets: 
#        150
#        6520
#        19163
#        34776
#        53136
#        72318
#        88779
#        103034
#        117038
#        131634
#        145722
#        162057
#        180926
#
# Disc length: 2578 seconds
#
# Revision: 0
# Processed by: cddbd v1.5.2PL0 Copyright (c) Steve Scherf et al.
# Submitted via: ExactAudioCopy v0.99pb4
#
DISCID=a60a100d
DTITLE=Juno - 13
DYEAR=2008
DGENRE=Rap
TTITLE0=Intro
TTITLE1=Jon Audion
TTITLE2=Hitto Soikoon
TTITLE3=Kaunein P‰‰ll‰ Maan
TTITLE4=Kokonaiskuva
TTITLE5=Esivedos (feat. Pyhimys and Matinpoika)
TTITLE6=PLiisut Viisut (feat. Heikki Kuula)
TTITLE7=Kaks Raitaa (feat. Timo Pieni Huijaus)
TTITLE8=Matkamies
TTITLE9=Salaiset Kansiot
TTITLE10=Suu Kii (feat. Alamaa and Eetee)
TTITLE11=Neiti Ivan Ho (feat. Stig Dogg)
TTITLE12=13
EXTD=
EXTT0=
EXTT1=
EXTT2=
EXTT3=
EXTT4=
EXTT5=
EXTT6=
EXTT7=
EXTT8=
EXTT9=
EXTT10=
EXTT11=
EXTT12=
PLAYORDER=
